<svg xmlns="http://www.w3.org/2000/svg" xmlns:svg="http://www.w3.org/2000/svg" xmlns:xlink="http://www.w3.org/1999/xlink" id="svg2" width="128" height="128" version="1.1" viewBox="0 0 128 128"><metadata id="metadata128"/><defs id="defs4"><linearGradient id="linearGradient5060"><stop id="stop7" offset="0"/><stop id="stop9" offset="1" stop-opacity="0"/></linearGradient><linearGradient id="linearGradient5027" x2="0" y1="-150.697" y2="327.66" gradientUnits="userSpaceOnUse"><stop id="stop12" offset="0" stop-opacity="0"/><stop id="stop14" offset=".5"/><stop id="stop16" offset="1" stop-opacity="0"/></linearGradient><linearGradient id="linearGradient6738" x1="16.25" x2="31.5" y1="12.25" y2="36.625" gradientTransform="matrix(2.9186598,0,0,2.6345737,-4.8428991,-17.303404)" gradientUnits="userSpaceOnUse"><stop id="stop19" offset="0" stop-color="#fff"/><stop id="stop21" offset="1" stop-color="#ddd"/></linearGradient><linearGradient id="linearGradient6954" x2="0" y1="29.224" y2="35.474" gradientUnits="userSpaceOnUse"><stop id="stop24" offset="0" stop-color="#fff"/><stop id="stop26" offset="1" stop-color="#c9c9c9"/></linearGradient><linearGradient id="linearGradient6956" x1="26.504" x2="28.364" y1="35.82" y2="36.57" gradientTransform="translate(5.9124945,0.99230678)" gradientUnits="userSpaceOnUse" xlink:href="#linearGradient5060"/><linearGradient id="linearGradient6958" x1="22.687" x2="21.408" y1="36.39" y2="35.74" gradientTransform="matrix(-0.97769,0.21008,0.21008,0.97769,61.56807,-4.44833)" gradientUnits="userSpaceOnUse" xlink:href="#linearGradient5060"/><radialGradient id="radialGradient278" cx="55" cy="125" r="14.375" gradientUnits="userSpaceOnUse"><stop id="stop31" offset="0" stop-color="#fff"/><stop id="stop33" offset=".5" stop-color="#fff520" stop-opacity=".891"/><stop id="stop35" offset="1" stop-color="#fff300" stop-opacity="0"/></radialGradient><radialGradient id="radialGradient6948" cx="16.215" cy="19.836" r="13.565" gradientTransform="matrix(1,0,0,0.68192,19.76231,14.9041)" gradientUnits="userSpaceOnUse"><stop id="stop38" offset="0" stop-color="#727e0a"/><stop id="stop40" offset="1" stop-color="#5b6508"/></radialGradient><radialGradient id="radialGradient6952" cx="29.345" cy="17.064" r="9.162" gradientTransform="matrix(0.788,0,0,0.788,6.2212,3.61763)" gradientUnits="userSpaceOnUse"><stop id="stop43" offset="0" stop-color="#e9b15e"/><stop id="stop45" offset="1" stop-color="#966416"/></radialGradient><radialGradient id="radialGradient5031" cx="605.714" cy="486.648" r="117.143" gradientTransform="matrix(-2.77439,0,0,1.96971,112.7623,-872.8854)" gradientUnits="userSpaceOnUse" xlink:href="#linearGradient5060"/><radialGradient id="radialGradient5029" cx="605.714" cy="486.648" r="117.143" gradientTransform="matrix(2.77439,0,0,1.96971,-1891.633,-872.8854)" gradientUnits="userSpaceOnUse" xlink:href="#linearGradient5060"/><radialGradient id="radialGradient6950" cx="31.113" cy="19.009" r="8.662" gradientUnits="userSpaceOnUse" xlink:href="#linearGradient5060"/></defs><g id="layer1" transform="matrix(2.1385661,0,0,2.1385661,-36.355623,89.820203)"><path style="fill:#000" id="rect3174" d="m 10,8 c -3.3137,0 -6,2.6822 -6,6 0.074392,9.0983 1.952e-4,18.727 0,28 0,3.1932 2.4839,5.7776 5.625,5.9688 l 44.625,0.031 c 3.199,-0.129 5.75,-2.765 5.75,-6 l 0,-29.031 c -0.485,-2.829 -2.941,-4.969 -5.906,-4.969 -14.69,0.0067 -29.398,1e-4 -44.094,0 z m -0.09375,3.1562 44.375,0 -21.469,21.469 c -0.39174,0.39174 -1.0145,0.39174 -1.4062,0 l -21.5,-21.469 z m 47.094,1.532 0,29.093 c 0,1.7334 -0.6245,2.7125 -1.875,3.0625 l -15.125,-15.156 17,-17 z m -49.656,0.124 16.718,16.719 -15.281,15.281 c -1.046,-0.353 -1.4101,-1.195 -1.4372,-2.343 l 0,-29.656 z m 18.844,18.812 5.2188,5.25 c 0.39174,0.39174 1.0145,0.39174 1.4062,0 l 5.062,-5.062 13.187,13.188 -38.25,0 13.375,-13.375 z" transform="translate(13,-50)"/></g><g id="g10" transform="matrix(0.26759984,0,0,-0.26759984,62.366861,118.02764)"><path style="fill:#a2478a;fill-opacity:1;fill-rule:nonzero;stroke:none" id="path14" d="m 104.00014,165.45424 c -8.313043,0 -16.263246,-1.57861 -23.850744,-4.72609 -7.594015,-3.15718 -14.181554,-7.52151 -19.768717,-13.10966 -5.587026,-5.58537 -10.031894,-12.10596 -13.321854,-19.55278 -3.297028,-7.45376 -4.942836,-15.61837 -4.942836,-24.4966 0,-8.312905 1.645808,-16.26269 4.942836,-23.850746 3.28996,-7.594012 7.734828,-14.256255 13.321854,-19.984093 5.587163,-5.733797 12.174702,-10.246299 19.768717,-13.536809 7.587498,-3.297027 15.537701,-4.941729 23.850744,-4.941729 8.30583,0 16.2577,1.644702 23.85171,4.941729 7.5875,3.29051 14.18128,7.803012 19.76942,13.536809 5.58675,5.727838 10.02454,12.390081 13.32171,19.984093 3.29023,7.588056 4.94089,15.537841 4.94089,23.850746 -0.85928,16.90258 -6.87567,31.15898 -18.04779,42.76184 -11.17419,11.60314 -25.6454,17.97571 -43.40561,19.12329 l -0.43033,0 z M 104.43047,208 c 14.03437,0 27.28859,-2.79405 39.75226,-8.38083 12.46244,-5.58534 23.4211,-13.10687 32.87602,-22.5618 9.45355,-9.45492 16.97508,-20.48705 22.56183,-33.09085 C 205.20733,131.3558 208,117.89258 208,103.56911 208,89.239815 205.27385,75.85019 199.83679,63.387487 194.39,50.925336 187.01124,39.966662 177.70323,30.511325 168.38966,21.056678 157.431,13.602838 144.82719,8.1646355 132.21703,2.726419 118.61203,0 104.00014,0 89.671258,0 76.208041,2.5780813 63.603558,7.7347705 50.993109,12.892 39.96777,20.123798 30.512431,29.437215 21.058202,38.744259 13.605015,49.702934 8.1651761,62.313379 2.7204595,74.917448 0,88.668665 0,103.56911 c 0,14.32347 2.6462976,27.71892 7.9502436,40.1826 5.2990814,12.46381 12.6781754,23.34765 22.1335154,32.66119 9.453538,9.30801 20.553026,16.76025 33.305391,22.347 12.744188,5.58675 26.429298,8.66218 41.04132,9.2401"/></g><g id="g4250" transform="matrix(0.16801262,0,0,0.16801262,85.012954,66.157096)"><ellipse style="fill:none;stroke:red;stroke-width:50.00000381" id="path3315" cx="30.857" cy="143.085" rx="200" ry="199.999"/><path style="fill:red;stroke:red;stroke-width:50" id="path4089" d="m -114.84995,20.228255 297.14,260.000005"/></g></svg>